<svg width="118" height="26" viewBox="0 0 118 26" fill="none" xmlns="http://www.w3.org/2000/svg">
<g clip-path="url(#clip0_329_2984)">
<path d="M46.487 11.0627V22.7081H43.8416V11.0627H37.7852V22.7081H35.1533V8.41969H37.7852V10.9415C37.8037 10.5927 37.8841 10.2662 38.0276 9.96194C38.171 9.64904 38.359 9.38066 38.5915 9.15681C38.8327 8.92429 39.111 8.74496 39.4239 8.62005C39.7368 8.48648 40.0732 8.41846 40.4306 8.41846H43.8416C44.1904 8.41846 44.5218 8.48524 44.836 8.62005C45.1489 8.74496 45.4271 8.92429 45.6683 9.15681C45.9095 9.38066 46.1024 9.64904 46.2459 9.96194C46.398 10.2662 46.4784 10.5927 46.4883 10.9415C46.5056 10.5927 46.5823 10.2662 46.7171 9.96194C46.8605 9.64904 47.0485 9.38066 47.281 9.15681C47.5222 8.92429 47.8005 8.74496 48.1134 8.62005C48.4263 8.48648 48.7627 8.41846 49.1201 8.41846H52.5311C52.8984 8.41846 53.2435 8.49019 53.565 8.63365C53.8878 8.76722 54.1649 8.95521 54.3974 9.19762C54.6386 9.43013 54.8278 9.70717 54.9614 10.03C55.1048 10.3515 55.1766 10.6966 55.1766 11.0627V22.7081H52.5311V11.0627H46.4883H46.487Z" fill="white"/>
<path d="M69.2129 20.0651C69.2129 20.4312 69.1411 20.7762 68.9977 21.0978C68.8629 21.4193 68.6749 21.7013 68.4337 21.9425C68.2012 22.175 67.9229 22.363 67.6014 22.5065C67.2885 22.64 66.9471 22.7081 66.581 22.7081H59.4771C59.1184 22.7081 58.7783 22.6413 58.4567 22.5065C58.1339 22.363 57.8519 22.175 57.6108 21.9425C57.3783 21.7013 57.1903 21.4193 57.0468 21.0978C56.912 20.7762 56.8452 20.4312 56.8452 20.0651V11.0627C56.8452 10.6953 56.912 10.3515 57.0468 10.03C57.1903 9.7084 57.3783 9.43013 57.6108 9.19762C57.8519 8.95645 58.1339 8.76846 58.4567 8.63365C58.7795 8.49019 59.1196 8.41846 59.4771 8.41846H66.581C66.9484 8.41846 67.2885 8.49019 67.6014 8.63365C67.9242 8.76722 68.2012 8.95521 68.4337 9.19762C68.6761 9.43013 68.8629 9.70717 68.9977 10.03C69.1411 10.3515 69.2129 10.6966 69.2129 11.0627V20.0651ZM59.4771 11.0627V20.0651H66.581V11.0627H59.4771Z" fill="white"/>
<path d="M79.5162 20.0653V16.752H73.2446C72.8772 16.752 72.5322 16.6852 72.2106 16.5504C71.8878 16.407 71.6058 16.219 71.3647 15.9865C71.1322 15.7453 70.9442 15.4633 70.8007 15.1417C70.6659 14.8202 70.5991 14.4751 70.5991 14.109V11.0641C70.5991 10.6968 70.6659 10.353 70.8007 10.0314C70.9442 9.70987 71.1322 9.4316 71.3647 9.19908C71.6058 8.95791 71.8878 8.76993 72.2106 8.63512C72.5334 8.49165 72.8772 8.41992 73.2446 8.41992H81.6113V11.0629H73.2446V14.1078H79.5162C79.8835 14.1078 80.2236 14.1795 80.5365 14.323C80.8593 14.4566 81.1413 14.6446 81.3825 14.887C81.6249 15.1195 81.8129 15.3965 81.9464 15.7193C82.0899 16.0409 82.1616 16.3859 82.1616 16.752V20.0653C82.1616 20.4314 82.0899 20.7765 81.9464 21.098C81.8116 21.4196 81.6236 21.7016 81.3825 21.9427C81.1413 22.1752 80.8593 22.3632 80.5365 22.5067C80.2236 22.6403 79.8835 22.7083 79.5162 22.7083H70.5991V20.0653H79.5162Z" fill="white"/>
<path d="M95.6476 16.9126H86.1802V20.0651H95.6476V22.7081H86.1802C85.8215 22.7081 85.4814 22.6413 85.1598 22.5065C84.8371 22.363 84.5551 22.175 84.3139 21.9425C84.0814 21.7013 83.8934 21.4193 83.7499 21.0978C83.6151 20.7762 83.5483 20.4312 83.5483 20.0651V11.0627C83.5483 10.6953 83.6151 10.3515 83.7499 10.03C83.8934 9.7084 84.0814 9.43013 84.3139 9.19762C84.5551 8.95645 84.8371 8.76846 85.1598 8.63365C85.4826 8.49019 85.8228 8.41846 86.1802 8.41846H93.0022C93.3695 8.41846 93.7146 8.49019 94.0361 8.63365C94.3589 8.76722 94.6359 8.95521 94.8685 9.19762C95.1096 9.43013 95.2976 9.70717 95.4324 10.03C95.5759 10.3515 95.6476 10.6966 95.6476 11.0627V16.9113V16.9126ZM86.1802 11.0639V14.2696H93.0022V11.0639H86.1802Z" fill="white"/>
<path d="M100.095 8.41982V22.7082H97.4493V8.41982H100.095ZM97.3145 2.91992H100.228V5.67049H97.3145V2.91992Z" fill="white"/>
<path d="M111.352 22.7082L104.53 16.6035V22.7082H101.898V2.91992H104.53V14.0545L110.801 8.41982H114.522L106.84 15.316L115.072 22.7082H111.352Z" fill="white"/>
<path d="M117.022 8.41982V22.7082H114.377V8.41982H117.022ZM114.242 2.91992H117.156V5.67049H114.242V2.91992Z" fill="white"/>
<path d="M20.9443 25.5702V19.3826L27.1319 13.1938V25.5702H20.9443Z" fill="url(#paint0_linear_329_2984)"/>
<path d="M7.08282 25.5702H0.894043V13.1938L7.08158 19.3826V25.5702H7.08282Z" fill="url(#paint1_linear_329_2984)"/>
<path d="M5.24993 0.570312L0.894043 4.9262L14.0879 18.12L27.2631 4.94476L22.9072 0.590101L14.0891 9.40825L5.24993 0.570312Z" fill="url(#paint2_linear_329_2984)"/>
</g>
<defs>
<linearGradient id="paint0_linear_329_2984" x1="24.0375" y1="0.570171" x2="24.0375" y2="25.1979" gradientUnits="userSpaceOnUse">
<stop stop-color="#0386FF"/>
<stop offset="1" stop-color="#40FFDD"/>
</linearGradient>
<linearGradient id="paint1_linear_329_2984" x1="3.98843" y1="0.570171" x2="3.98843" y2="25.5702" gradientUnits="userSpaceOnUse">
<stop stop-color="#EE6898"/>
<stop offset="1" stop-color="#FF9243"/>
</linearGradient>
<linearGradient id="paint2_linear_329_2984" x1="7.11497" y1="9.19181" x2="21.7212" y2="9.40206" gradientUnits="userSpaceOnUse">
<stop stop-color="#F37381"/>
<stop offset="0.48" stop-color="#C229CB"/>
<stop offset="1" stop-color="#13A6F6"/>
</linearGradient>
<clipPath id="clip0_329_2984">
<rect width="116.262" height="25" fill="white" transform="translate(0.894043 0.570312)"/>
</clipPath>
</defs>
</svg>
